# xmcd
#
# Track frame offsets: 
#        150
#        10822
#        20701
#        32663
#        45793
#        59421
#        73273
#        85160
#        98680
#        111146
#        127819
#        143231
#        154680
#        165222
#        176967
#        192979
#        212812
#        225324
#        237797
#        251526
#        264522
#        275027
#        289464
#        302307
#
# Disc length: 4231 seconds
#
# Revision: 0
# Processed by: cddbd v1.5.2PL0 Copyright (c) Steve Scherf et al.
# Submitted via: ExactAudioCopyFreeDBPlugin 1.0
#
DISCID=45108518
DTITLE=Various Artist - Soul Don't Worry! Black Gospel during the Civil Right
DTITLE=s era  1953-1967 
DYEAR=2019
DGENRE=Gospel
TTITLE0=Inez Andrews  - Sing A Song 
TTITLE1=Harold Bailey Singers  - Looking For My Lord 
TTITLE2=JM Bell and Robinson Ensemble  - I'll Fight For The Right 
TTITLE3=Harold Bowen Singers  - Traveling To That City 
TTITLE4=Butler-Aires with Little Junior  - Jackie, Don't You Weep 
TTITLE5=Caravans with James Cleveland and Albertina Walker  - Steal Away
TTITLE5=
TTITLE6=Christland Singers  - Where Could I Go 
TTITLE7=Christine Clark  - Swing Low, Sweet Chariot 
TTITLE8=Davis Sisters  - I Promised The Lord 
TTITLE9=Drinkard Singers with Cissy Houston  - You Can't Make Me Doubt
TTITLE9=Him 
TTITLE10=Rev Clay Evans-Fellowship Baptist Choir  - The Lord Will Make
TTITLE10=A Way 
TTITLE11=Fairfield Four  - We Never Grow Old 
TTITLE12=Five Blind Boys Of Alabama  - I Cried 
TTITLE13=Friendly Four  - What Is Freedom 
TTITLE14=Cassietta George  - Oh, How I Love Jesus 
TTITLE15=Gospel Harmonettes, Dorothy Love  - Coates Human Bondage 
TTITLE16=Greater Harvest Baptist Choir  - It's Going To Rain 
TTITLE17=Bro Will Hairston  - Shout School Children 
TTITLE18=Hamptonaires  - See How Far We've Come 
TTITLE19=Rev Reuben L Henry  - God's Going To Ring Those Freedom Bells
TTITLE19=
TTITLE20=Henry Hines and The Revelations  - Soul Don't Worry 
TTITLE21=Holy Hour Singers, Prof Henry High  - I'm A Soldier 
TTITLE22=Institutional C.O.G.I.C. Choir  - When Trouble Comes-Stretch 
TTITLE22=Out 
TTITLE23=Mahalia Jackson  - Consider Me 
EXTD=
EXTT0=
EXTT1=
EXTT2=
EXTT3=
EXTT4=
EXTT5=
EXTT6=
EXTT7=
EXTT8=
EXTT9=
EXTT10=
EXTT11=
EXTT12=
EXTT13=
EXTT14=
EXTT15=
EXTT16=
EXTT17=
EXTT18=
EXTT19=
EXTT20=
EXTT21=
EXTT22=
EXTT23=
PLAYORDER=
